<svg width="644" height="670" viewBox="0 0 644 670" fill="none" xmlns="http://www.w3.org/2000/svg">
<g filter="url(#filter0_d_226_584)">
<path d="M322 662C497.627 662 640 573.766 640 464.924C640 356.082 497.627 267.848 322 267.848C146.373 267.848 4 356.082 4 464.924C4 573.766 146.373 662 322 662Z" fill="#F0F0F0"/>
<path d="M80.5003 535.102L25.649 501.187C22.5582 499.26 22.5582 496.159 25.649 494.247L344.715 296.446C346.45 295.496 348.369 295.001 350.316 295.001C352.264 295.001 354.183 295.496 355.918 296.446L410.769 330.435C413.86 332.347 413.86 335.462 410.769 337.374L91.7027 535.102C89.9664 536.046 88.0476 536.537 86.1015 536.537C84.1555 536.537 82.2367 536.046 80.5003 535.102V535.102Z" fill="#E0E0E0"/>
<path d="M316.277 549.17L184.534 467.531L349.169 365.698L480.75 447.234L316.277 549.17Z" fill="#E0E0E0"/>
<path d="M498.161 585.577C532.555 585.577 560.436 568.298 560.436 546.982C560.436 525.666 532.555 508.387 498.161 508.387C463.768 508.387 435.887 525.666 435.887 546.982C435.887 568.298 463.768 585.577 498.161 585.577Z" fill="#E0E0E0"/>
<path d="M581.72 500.506C588.469 504.693 588.469 511.473 581.72 515.66C574.972 519.847 564.026 519.832 557.277 515.66C550.529 511.487 550.529 504.693 557.277 500.506C564.026 496.319 574.972 496.319 581.72 500.506Z" fill="#E0E0E0"/>
<path d="M277.663 474.515L324.821 445.25C329.68 442.236 332.109 438.295 332.109 434.34C332.109 430.385 332.109 427.299 332.109 427.299L283.183 397.686C281.82 396.735 280.684 395.452 279.868 393.942C279.052 392.432 278.579 390.737 278.486 388.994V326.566L196.155 377.65V440.048C196.25 441.791 196.724 443.485 197.54 444.995C198.356 446.504 199.49 447.787 200.852 448.741L242.476 474.471C252.181 480.542 267.945 480.542 277.663 474.515Z" fill="#5A1017"/>
<g opacity="0.6">
<path d="M277.663 474.515L324.821 445.25C329.68 442.236 332.109 438.295 332.109 434.34C332.109 430.385 332.109 427.299 332.109 427.299L283.183 397.686C281.82 396.735 280.684 395.452 279.868 393.942C279.052 392.432 278.579 390.737 278.486 388.994V326.566L196.155 377.65V440.048C196.25 441.791 196.724 443.485 197.54 444.995C198.356 446.504 199.49 447.787 200.852 448.741L242.476 474.471C252.181 480.542 267.945 480.542 277.663 474.515Z" fill="black"/>
</g>
<path opacity="0.3" d="M215.928 451.103V458.115L200.825 448.77C199.463 447.818 198.33 446.534 197.516 445.024C196.703 443.514 196.232 441.819 196.142 440.078V377.65L211.825 367.9C212.149 372.246 212.513 376.593 212.837 380.939L201.824 387.777V436.528C201.911 438.272 202.382 439.969 203.199 441.48C204.015 442.991 205.154 444.273 206.521 445.221L215.928 451.103Z" fill="black"/>
<path d="M201.824 436.543C201.917 438.285 202.39 439.98 203.206 441.491C204.022 443.001 205.157 444.283 206.521 445.235L242.449 467.459C252.167 473.472 267.932 473.486 277.663 467.459L324.902 438.194C334.633 432.167 334.633 422.403 324.902 416.376L288.96 394.152C287.596 393.201 286.46 391.918 285.644 390.408C284.827 388.898 284.354 387.202 284.263 385.459V336.693L201.932 387.777L201.824 436.543Z" fill="#5A1017"/>
<path opacity="0.3" d="M201.824 436.543C201.917 438.285 202.39 439.98 203.206 441.491C204.022 443.001 205.157 444.283 206.521 445.235L242.449 467.459C252.167 473.472 267.932 473.486 277.663 467.459L324.902 438.194C334.633 432.167 334.633 422.403 324.902 416.376L288.96 394.152C287.596 393.201 286.46 391.918 285.644 390.408C284.827 388.898 284.354 387.202 284.263 385.459V336.693L201.932 387.777L201.824 436.543Z" fill="black"/>
<path opacity="0.5" d="M298.448 400.106L288.892 394.181C287.528 393.23 286.392 391.947 285.576 390.437C284.76 388.926 284.287 387.231 284.195 385.488V336.693L201.864 387.777V436.543C201.957 438.285 202.43 439.98 203.246 441.491C204.062 443.001 205.198 444.283 206.561 445.235L216.009 451.03L298.448 400.106Z" fill="black"/>
<path d="M332.123 427.299V434.34C332.123 438.295 329.68 442.222 324.834 445.249L277.595 474.5C272.426 477.462 266.652 479 260.792 478.977V471.965C266.652 471.988 272.426 470.45 277.595 467.488L324.834 438.208C329.68 435.224 332.123 431.269 332.123 427.299Z" fill="#5A1017"/>
<path opacity="0.5" d="M332.123 427.299V434.34C332.123 438.295 329.68 442.222 324.834 445.249L277.595 474.5C272.426 477.462 266.652 479 260.792 478.977V471.965C266.652 471.988 272.426 470.45 277.595 467.488L324.834 438.208C329.68 435.224 332.123 431.269 332.123 427.299Z" fill="black"/>
<path d="M69.5817 497.145C71.3616 498.068 73.3185 498.529 75.2948 498.491C77.2711 498.453 79.2115 497.918 80.9596 496.928L399.486 299.533C401.194 298.337 402.616 296.726 403.636 294.831C404.656 292.936 405.245 290.809 405.357 288.623V12.0244C405.281 9.90674 404.742 7.83803 403.783 5.98562C402.824 4.1332 401.472 2.54909 399.837 1.36145C398.059 0.437646 396.104 -0.0228314 394.129 0.0174469C392.154 0.0577253 390.216 0.597622 388.473 1.59325L69.9461 198.974C68.2395 200.166 66.8194 201.775 65.8015 203.668C64.7836 205.561 64.1966 207.686 64.0885 209.868V486.467C64.1594 488.585 64.6936 490.655 65.6479 492.51C66.6022 494.365 67.9498 495.953 69.5817 497.145V497.145Z" fill="#5A1017"/>
<path d="M80.9592 496.913L399.486 299.518C401.194 298.323 402.616 296.712 403.636 294.817C404.657 292.921 405.246 290.794 405.357 288.609V12.024C405.357 8.01087 402.725 6.37376 399.486 8.38755L80.9592 205.782C79.2505 206.977 77.8283 208.588 76.8082 210.483C75.7881 212.379 75.1988 214.506 75.088 216.692V493.276C75.088 497.289 77.7199 498.926 80.9592 496.913Z" fill="#5A1017"/>
<path opacity="0.5" d="M80.9592 496.913L399.486 299.518C401.194 298.323 402.616 296.712 403.636 294.817C404.657 292.921 405.246 290.794 405.357 288.609V12.024C405.357 8.01087 402.725 6.37376 399.486 8.38755L80.9592 205.782C79.2505 206.977 77.8283 208.588 76.8082 210.483C75.7881 212.379 75.1988 214.506 75.088 216.692V493.276C75.088 497.289 77.7199 498.926 80.9592 496.913Z" fill="black"/>
<path d="M80.0954 504.084C78.4306 504.86 76.6294 505.241 74.8148 505.201C73.0001 505.161 71.215 504.701 69.5813 503.852C67.9441 502.658 66.5922 501.066 65.6354 499.206C64.6786 497.346 64.1439 495.269 64.0746 493.146V467.981L75.0745 474.819V499.999C75.0745 503.664 77.2475 505.33 80.0954 504.084Z" fill="#5A1017"/>
<path opacity="0.5" d="M80.0954 504.084C78.4306 504.86 76.6294 505.241 74.8148 505.201C73.0001 505.161 71.215 504.701 69.5813 503.852C67.9441 502.658 66.5922 501.066 65.6354 499.206C64.6786 497.346 64.1439 495.269 64.0746 493.146V467.981L75.0745 474.819V499.999C75.0745 503.664 77.2475 505.33 80.0954 504.084Z" fill="black"/>
<path d="M75.0746 474.819V499.999C75.0746 504.012 77.774 505.634 80.9457 503.635L399.472 306.24C401.18 305.044 402.602 303.434 403.622 301.538C404.642 299.643 405.232 297.516 405.343 295.331V270.093L75.0746 474.819Z" fill="#5A1017"/>
<path opacity="0.3" d="M75.088 474.761V499.999C75.088 504.012 77.7874 505.634 80.9592 503.635L399.486 306.24C401.193 305.044 402.615 303.434 403.635 301.538C404.655 299.643 405.245 297.516 405.357 295.331V270.093L75.088 474.761Z" fill="black"/>
<path d="M86.088 443.236V220.603C86.1529 219.295 86.5045 218.021 87.1143 216.886C87.724 215.75 88.5747 214.786 89.5972 214.069L390.807 27.4389C392.751 26.2365 394.33 27.2071 394.33 29.6121V252.201C394.264 253.513 393.911 254.79 393.299 255.928C392.687 257.066 391.833 258.033 390.807 258.75L89.6242 445.409C87.6672 446.611 86.088 445.626 86.088 443.236Z" fill="#5A1017"/>
<path d="M86.088 443.236V220.603C86.1529 219.295 86.5045 218.021 87.1143 216.886C87.724 215.75 88.5747 214.786 89.5972 214.069L390.807 27.4389C392.751 26.2365 394.33 27.2071 394.33 29.6121V252.201C394.264 253.513 393.911 254.79 393.299 255.928C392.687 257.066 391.833 258.033 390.807 258.75L89.6242 445.409C87.6672 446.611 86.088 445.626 86.088 443.236Z" fill="#CDB7B9"/>
<path opacity="0.7" d="M76.8156 210.462C75.7696 212.349 75.1717 214.484 75.0745 216.677V474.819L64.0746 467.981V209.868C64.1471 207.672 64.7418 205.532 65.8022 203.653L76.8156 210.462Z" fill="black"/>
<path opacity="0.3" d="M405.289 10.9809C404.871 7.73566 402.428 6.56216 399.472 8.37312L80.9592 205.782C79.2322 206.942 77.8068 208.552 76.8157 210.462L65.8022 203.638C66.7999 201.729 68.2296 200.119 69.9593 198.959L388.486 1.57839C390.232 0.582626 392.172 0.0427066 394.149 0.00243174C396.126 -0.0378431 398.083 0.422661 399.863 1.34659C401.357 2.4424 402.615 3.86951 403.551 5.53155C404.487 7.19359 405.08 9.05187 405.289 10.9809V10.9809Z" fill="black"/>
<path d="M110.693 263.226C109.888 262.627 109.224 261.835 108.756 260.911C108.287 259.988 108.026 258.96 107.994 257.909V233.41C108.052 232.322 108.347 231.263 108.856 230.32C109.365 229.376 110.073 228.574 110.923 227.977L410.675 42.1728C411.519 41.6025 412.492 41.2902 413.489 41.2697C414.486 41.2492 415.47 41.5211 416.333 42.0563C417.197 42.5914 417.908 43.3694 418.391 44.3065C418.873 45.2436 419.108 46.3041 419.07 47.3739V71.8581C419.021 72.9471 418.731 74.0078 418.224 74.9525C417.717 75.8972 417.007 76.6988 416.155 77.291L116.348 263.11C115.481 263.607 114.516 263.876 113.534 263.896C112.551 263.916 111.578 263.687 110.693 263.226V263.226Z" fill="#5A1017"/>
<path opacity="0.4" d="M419.043 46.8669C418.84 45.2442 417.612 44.6502 416.154 45.563L116.348 231.382C115.491 231.971 114.782 232.777 114.283 233.729L108.803 230.267C109.298 229.311 110.008 228.504 110.868 227.92L410.675 42.1729C411.479 41.6038 412.41 41.2761 413.372 41.2238C414.335 41.1716 415.292 41.3965 416.146 41.8755C417 42.3544 417.719 43.0698 418.228 43.9475C418.737 44.8252 419.019 45.8331 419.043 46.8669V46.8669Z" fill="white"/>
<path d="M116.348 462.417C115.654 462.869 114.865 463.128 114.054 463.171C112.899 463.328 111.727 463.106 110.693 462.533C109.886 461.937 109.22 461.145 108.751 460.221C108.282 459.297 108.023 458.268 107.994 457.216V270.571L113.487 273.976V460.621C113.487 462.07 114.148 462.866 115.107 462.866C115.548 462.824 115.973 462.67 116.348 462.417V462.417Z" fill="#F0F0F0"/>
<path opacity="0.1" d="M114.283 233.729C113.758 234.663 113.465 235.725 113.433 236.815V273.976L107.939 270.571V233.41C107.939 233.28 107.939 233.164 107.939 233.034C107.964 232.775 108.005 232.519 108.061 232.266C108.212 231.583 108.457 230.929 108.79 230.324L114.283 233.729Z" fill="black"/>
<path d="M419.069 47.3738V64.1361L204.064 197.423C202.458 198.423 201.149 197.611 201.149 195.612V189.266C201.149 187.267 199.799 186.456 198.22 187.455L127.321 231.397C126.469 231.991 125.759 232.792 125.25 233.736C124.741 234.68 124.447 235.74 124.392 236.829V243.175C124.336 244.262 124.043 245.321 123.537 246.264C123.031 247.208 122.325 248.011 121.477 248.608L113.379 253.592V236.815C113.434 235.728 113.727 234.67 114.233 233.726C114.74 232.782 115.446 231.979 116.294 231.382L416.154 45.5629C417.76 44.5632 419.069 45.3745 419.069 47.3738Z" fill="#5A1017"/>
<path d="M419.069 271.165C419.017 272.255 418.725 273.317 418.219 274.263C417.712 275.21 417.005 276.015 416.154 276.613L116.348 462.417C114.742 463.417 113.432 462.606 113.432 460.606V253.577L121.531 248.593C123.137 247.594 125.755 232.382 127.375 231.382L197.086 188.165C198.706 187.166 202.485 198.408 204.118 197.408L419.123 64.1216V271.151L419.069 271.165Z" fill="#FAFAFA"/>
<path d="M417.72 66.6425V271.165C417.668 272 417.44 272.812 417.051 273.537C416.663 274.263 416.125 274.884 415.479 275.352L115.673 461.171C115.487 461.302 115.274 461.382 115.052 461.403C114.782 461.403 114.782 460.65 114.782 460.606V254.403L122.152 249.839C123.326 249.115 124.055 246.681 125.688 240.408C126.274 237.723 127.083 235.1 128.104 232.57L197.194 189.701C198.004 190.903 198.739 192.162 199.394 193.468C201.27 197.017 202.323 198.872 203.848 198.872C204.162 198.873 204.47 198.783 204.739 198.611L417.72 66.599M419.069 64.1361L204.064 197.423C203.994 197.445 203.919 197.445 203.848 197.423C202.215 197.423 198.895 188.064 197.248 188.064C197.177 188.044 197.103 188.044 197.032 188.064L127.321 231.281C125.701 232.28 123.083 247.492 121.477 248.492L113.379 253.476V460.621C113.379 462.07 114.04 462.866 114.998 462.866C115.477 462.857 115.943 462.706 116.348 462.432L416.154 276.627C417.005 276.029 417.712 275.224 418.219 274.278C418.725 273.331 419.017 272.27 419.069 271.18V64.1361V64.1361Z" fill="#E0E0E0"/>
<path d="M164.721 344.096L204.672 319.337C205.751 318.67 206.615 319.206 206.615 320.539V392.76C206.58 393.486 206.386 394.192 206.048 394.822C205.71 395.451 205.239 395.986 204.672 396.382L164.721 421.142C163.641 421.808 162.777 421.258 162.777 419.925V347.718C162.812 346.993 163.007 346.286 163.344 345.657C163.682 345.028 164.154 344.493 164.721 344.096Z" fill="#F0F0F0"/>
<path d="M172.023 348.616L197.37 332.912C198.436 332.245 199.313 332.723 199.313 333.969C199.265 334.672 199.064 335.352 198.726 335.956C198.389 336.56 197.924 337.07 197.37 337.446L172.023 353.151C170.956 353.818 170.079 353.339 170.079 352.093C170.128 351.391 170.33 350.712 170.667 350.108C171.005 349.504 171.469 348.994 172.023 348.616V348.616Z" fill="#E0E0E0"/>
<path d="M170.079 360.337V361.974C170.079 362.771 170.605 363.09 171.253 362.698L172.603 361.873C172.946 361.637 173.232 361.317 173.436 360.939C173.64 360.561 173.757 360.136 173.777 359.699V358.077C173.777 357.266 173.251 356.947 172.603 357.352L171.253 358.164C170.912 358.402 170.629 358.722 170.425 359.1C170.221 359.477 170.102 359.901 170.079 360.337V360.337Z" fill="#5A1017"/>
<path d="M177.354 356.628C177.354 357.874 178.231 358.352 179.311 357.686L197.343 346.501C197.896 346.127 198.36 345.619 198.698 345.018C199.035 344.417 199.237 343.739 199.286 343.039C199.286 341.778 198.409 341.315 197.343 341.981L179.311 353.151C178.752 353.524 178.284 354.033 177.944 354.638C177.604 355.242 177.401 355.924 177.354 356.628V356.628Z" fill="#E0E0E0"/>
<path d="M170.079 369.348V370.986C170.079 371.782 170.605 372.101 171.253 371.71L172.603 370.884C172.944 370.647 173.229 370.327 173.433 369.949C173.637 369.571 173.755 369.147 173.777 368.711V367.088C173.777 366.277 173.251 365.958 172.603 366.364L171.253 367.175C170.912 367.413 170.629 367.734 170.425 368.111C170.221 368.489 170.102 368.913 170.079 369.348V369.348Z" fill="#5A1017"/>
<path d="M177.354 365.698C177.354 366.944 178.231 367.422 179.311 366.755L197.343 355.571C197.896 355.197 198.36 354.689 198.698 354.087C199.035 353.486 199.237 352.808 199.286 352.108C199.286 350.848 198.409 350.384 197.343 351.051L179.311 362.221C178.752 362.593 178.284 363.103 177.944 363.707C177.604 364.311 177.401 364.993 177.354 365.698V365.698Z" fill="#E0E0E0"/>
<path d="M170.079 378.461V380.084C170.079 380.895 170.605 381.214 171.253 380.808L172.603 379.997C172.944 379.759 173.228 379.438 173.432 379.06C173.636 378.683 173.754 378.259 173.777 377.824V376.186C173.777 375.39 173.251 375.071 172.603 375.462L171.253 376.288C170.912 376.525 170.627 376.845 170.423 377.223C170.219 377.601 170.101 378.025 170.079 378.461V378.461Z" fill="#5A1017"/>
<path d="M177.354 374.738C177.354 375.998 178.231 376.462 179.311 375.796L197.343 364.625C197.896 364.252 198.36 363.744 198.698 363.142C199.035 362.541 199.237 361.863 199.286 361.163C199.286 359.902 198.409 359.439 197.343 360.105L179.311 371.275C178.754 371.647 178.287 372.154 177.947 372.755C177.607 373.357 177.403 374.036 177.354 374.738V374.738Z" fill="#E0E0E0"/>
<path d="M170.079 387.501V389.139C170.079 389.935 170.605 390.269 171.253 389.863L172.603 389.052C172.944 388.814 173.228 388.493 173.432 388.115C173.636 387.738 173.754 387.314 173.777 386.878V385.285C173.777 384.488 173.251 384.155 172.603 384.56L171.253 385.372C170.918 385.605 170.637 385.919 170.433 386.289C170.23 386.658 170.108 387.073 170.079 387.501V387.501Z" fill="#5A1017"/>
<path d="M177.354 383.836C177.354 385.082 178.231 385.56 179.311 384.894L197.37 373.695C197.923 373.318 198.388 372.807 198.725 372.203C199.062 371.6 199.264 370.92 199.313 370.218C199.313 368.972 198.436 368.494 197.37 369.16L179.338 380.33C178.772 380.704 178.297 381.217 177.953 381.827C177.608 382.436 177.402 383.125 177.354 383.836Z" fill="#E0E0E0"/>
<path d="M171.874 398.541L197.208 382.837C198.288 382.17 199.165 382.634 199.165 383.894C199.115 384.596 198.912 385.275 198.572 385.877C198.232 386.478 197.765 386.985 197.208 387.357L171.874 403.061C170.794 403.728 169.917 403.264 169.931 402.004C169.978 401.303 170.178 400.624 170.516 400.023C170.854 399.421 171.319 398.913 171.874 398.541Z" fill="#E0E0E0"/>
<path d="M169.917 410.247V411.884C169.917 412.681 170.443 413.014 171.091 412.608L172.441 411.797C172.78 411.558 173.062 411.237 173.263 410.86C173.465 410.482 173.581 410.059 173.602 409.624V407.987C173.602 407.19 173.075 406.857 172.441 407.263L171.091 408.074C170.75 408.312 170.467 408.633 170.263 409.01C170.059 409.388 169.94 409.811 169.917 410.247Z" fill="#5A1017"/>
<path d="M177.232 406.538C177.232 407.784 178.11 408.262 179.176 407.596L197.208 396.426C197.765 396.051 198.232 395.542 198.572 394.938C198.912 394.334 199.115 393.652 199.165 392.949C199.165 391.703 198.287 391.225 197.208 391.891L179.176 403.061C178.622 403.438 178.158 403.949 177.82 404.553C177.483 405.156 177.282 405.836 177.232 406.538V406.538Z" fill="#E0E0E0"/>
<path d="M405.37 57.8629C407.408 56.6025 409.055 57.6311 409.055 60.1519C408.987 61.5231 408.618 62.8577 407.978 64.0463C407.337 65.2349 406.444 66.2437 405.37 66.9901C403.346 68.2361 401.699 67.2219 401.699 64.7011C401.765 63.3312 402.132 61.9975 402.77 60.809C403.408 59.6205 404.299 58.6109 405.37 57.8629Z" fill="white"/>
<path d="M392.13 66.0774C394.168 64.817 395.815 65.8311 395.815 68.352C395.756 69.7331 395.391 71.0793 394.75 72.2787C394.109 73.478 393.211 74.496 392.13 75.2481C390.105 76.5085 388.459 75.4799 388.459 72.9735C388.516 71.5937 388.879 70.2483 389.518 69.0491C390.156 67.8498 391.052 66.8311 392.13 66.0774V66.0774Z" fill="white"/>
<path d="M381.497 80.4471C382.932 77.7793 382.933 74.8966 381.5 74.0084C380.067 73.1203 377.742 74.563 376.307 77.2308C374.872 79.8986 374.871 82.7813 376.304 83.6694C377.737 84.5576 380.062 83.1149 381.497 80.4471Z" fill="white"/>
<path d="M419.069 64.1361V84.5348L113.432 273.976V253.577L119.439 249.839C121.045 248.84 121.585 247.319 122.354 244.407L124.392 236.815C125.04 234.178 125.742 232.382 127.321 231.382L197.032 188.165C198.652 187.166 199.92 187.064 201.081 189.252L203.578 194.12C204.496 195.815 204.928 196.814 206.561 195.815L419.069 64.1361Z" fill="#E6E6E6"/>
<path d="M113.433 253.577V273.976L107.939 270.571V250.187L113.433 253.577Z" fill="#E0E0E0"/>
<path opacity="0.5" d="M126.835 255.041L122.246 257.938L124.001 254.331C124.069 254.195 124.105 254.043 124.105 253.889C124.105 253.734 124.069 253.583 124.001 253.447C123.866 253.273 123.623 253.447 123.474 253.722L120.991 258.851C120.991 258.851 120.991 258.967 120.923 259.039C120.91 259.125 120.91 259.214 120.923 259.3C120.908 259.376 120.908 259.455 120.923 259.532C120.923 259.532 120.923 259.532 120.923 259.532C120.943 259.572 120.965 259.611 120.991 259.648V259.648L123.474 261.69C123.509 261.719 123.552 261.734 123.596 261.734C123.64 261.734 123.682 261.719 123.717 261.69C123.848 261.602 123.947 261.469 124.001 261.314C124.074 261.188 124.112 261.042 124.112 260.894C124.112 260.745 124.074 260.6 124.001 260.473L122.246 259.025L126.835 256.127C126.955 256.029 127.052 255.902 127.118 255.756C127.183 255.61 127.216 255.449 127.213 255.287C127.213 255.084 127.037 254.896 126.835 255.041Z" fill="#455A64"/>
<path opacity="0.5" d="M130.668 252.665L135.257 249.767L133.502 248.318C133.354 248.202 133.34 247.826 133.502 247.478C133.664 247.13 133.867 246.985 134.015 247.101L136.512 249.159C136.521 249.192 136.521 249.227 136.512 249.26V249.26C136.52 249.332 136.52 249.405 136.512 249.477C136.519 249.569 136.519 249.661 136.512 249.753C136.512 249.753 136.512 249.753 136.512 249.753C136.518 249.815 136.518 249.878 136.512 249.941V249.941L134.015 255.084C133.964 255.209 133.879 255.315 133.772 255.388C133.755 255.408 133.734 255.423 133.71 255.433C133.687 255.444 133.662 255.449 133.637 255.449C133.612 255.449 133.587 255.444 133.564 255.433C133.541 255.423 133.52 255.408 133.502 255.388C133.433 255.253 133.396 255.101 133.396 254.946C133.396 254.792 133.433 254.64 133.502 254.505L135.257 250.897L130.668 253.795C130.465 253.925 130.303 253.795 130.303 253.418C130.312 253.272 130.349 253.13 130.412 253C130.475 252.871 130.562 252.756 130.668 252.665V252.665Z" fill="#455A64"/>
<path opacity="0.5" d="M145.717 238.481C145.717 238.191 145.447 238.235 145.326 238.554L144.705 240.205C143.625 240.075 142.329 241.205 141.452 243.19C140.318 245.768 140.318 248.825 141.452 249.999C141.728 250.276 142.085 250.44 142.463 250.464C142.84 250.488 143.213 250.369 143.517 250.129C144.43 249.47 145.143 248.538 145.569 247.449C145.642 247.318 145.681 247.168 145.681 247.014C145.681 246.861 145.642 246.711 145.569 246.58C145.434 246.435 145.191 246.58 145.056 246.913C144.205 248.84 142.829 249.695 141.978 248.811C141.128 247.927 141.128 245.653 141.978 243.726C142.572 242.364 143.45 241.553 144.205 241.495L143.733 242.741C143.611 243.059 143.733 243.363 143.908 243.233L145.784 241.915C145.859 241.849 145.917 241.764 145.952 241.668C145.988 241.571 146 241.467 145.987 241.364L145.717 238.481Z" fill="#455A64"/>
<path opacity="0.5" d="M195.021 197.481L196.695 193.685C196.796 193.506 196.85 193.301 196.85 193.091C196.85 192.882 196.796 192.676 196.695 192.497C196.492 192.294 196.182 192.497 195.979 192.946L194.306 196.742L192.632 195.018C192.443 194.815 192.119 195.018 191.917 195.453C191.822 195.634 191.773 195.839 191.773 196.047C191.773 196.255 191.822 196.459 191.917 196.641L193.55 198.394L191.876 202.204C191.782 202.383 191.732 202.585 191.732 202.791C191.732 202.996 191.782 203.198 191.876 203.377C191.928 203.421 191.993 203.444 192.059 203.444C192.125 203.444 192.189 203.421 192.241 203.377C192.394 203.259 192.515 203.099 192.592 202.914L194.265 199.103L195.939 200.842C195.99 200.888 196.054 200.913 196.121 200.913C196.188 200.913 196.252 200.888 196.303 200.842C196.459 200.727 196.581 200.566 196.654 200.378C196.756 200.199 196.809 199.994 196.809 199.784C196.809 199.575 196.756 199.369 196.654 199.19L195.021 197.481Z" fill="#455A64"/>
<path d="M151.804 243.161V236.815C151.859 235.726 152.153 234.666 152.662 233.722C153.171 232.778 153.881 231.976 154.733 231.382L399.715 79.5945C401.321 78.5948 402.63 79.4061 402.63 81.4055V87.7511C402.575 88.8384 402.282 89.8965 401.775 90.8402C401.269 91.7838 400.563 92.5866 399.715 93.1839L154.733 244.972C153.06 245.971 151.804 245.16 151.804 243.161Z" fill="#FAFAFA"/>
<path d="M395.733 93.691C395.648 93.7076 395.562 93.7076 395.477 93.691C395.315 93.6103 395.183 93.4736 395.102 93.3028C395.022 93.1321 394.997 92.9371 395.031 92.7493L395.315 90.1705L394.195 89.3012C394.093 89.2189 394.012 89.1112 393.958 88.9875C393.903 88.8638 393.878 88.7278 393.884 88.5913C393.888 88.3834 393.933 88.1787 394.017 87.9912C394.101 87.8037 394.221 87.6378 394.37 87.5047L396.084 86.056C396.118 86.0147 396.141 85.9648 396.152 85.9111L396.921 83.2019C396.97 82.9824 397.079 82.7833 397.232 82.6288C397.385 82.4744 397.578 82.3715 397.785 82.3326C397.925 82.3202 398.066 82.3555 398.187 82.4334C398.308 82.5114 398.404 82.6282 398.46 82.7673L399.107 84.216L400.552 83.622C400.684 83.5638 400.831 83.5506 400.971 83.5843C401.111 83.618 401.238 83.6969 401.334 83.8104C401.449 84.0003 401.51 84.2217 401.51 84.4478C401.51 84.674 401.449 84.8954 401.334 85.0853L400.093 87.5772C400.093 87.5772 400.093 87.7221 400.093 87.7366L400.376 89.9966C400.407 90.208 400.394 90.4242 400.338 90.6296C400.282 90.835 400.185 91.0246 400.052 91.1846C399.968 91.2851 399.863 91.3635 399.746 91.4138C399.629 91.464 399.503 91.4847 399.377 91.4744L398.028 91.286L396.516 93.3578C396.423 93.4804 396.302 93.5754 396.165 93.6337C396.028 93.692 395.879 93.7118 395.733 93.691V93.691ZM394.91 88.4465L396.03 89.3157C396.146 89.42 396.235 89.5552 396.287 89.7077C396.339 89.8603 396.353 90.0249 396.327 90.185L396.138 91.8945L397.15 90.5182C397.236 90.3856 397.351 90.2787 397.486 90.2077C397.62 90.1366 397.77 90.1039 397.92 90.1125L399.269 90.3009C399.279 90.2434 399.279 90.1845 399.269 90.127L398.973 87.8669C398.948 87.5868 398.999 87.3048 399.121 87.0556L400.214 84.868L399.094 85.3316C398.927 85.4043 398.741 85.404 398.574 85.3309C398.408 85.2578 398.275 85.1176 398.203 84.9404L397.704 83.7959L397.015 86.2009C396.94 86.4662 396.794 86.7025 396.597 86.8818L394.869 88.3305C394.876 88.3716 394.89 88.4109 394.91 88.4465Z" fill="#E0E0E0"/>
<g opacity="0.5">
<path d="M406.072 78.8411C405.85 78.8398 405.634 78.7598 405.458 78.6136C405.282 78.4674 405.156 78.2631 405.099 78.0322C405.042 77.8013 405.058 77.5568 405.143 77.3364C405.229 77.116 405.38 76.932 405.573 76.8128L413.792 71.7132C414.025 71.5691 414.301 71.5301 414.561 71.6048C414.82 71.6795 415.041 71.8618 415.176 72.1116C415.31 72.3613 415.346 72.6581 415.277 72.9366C415.207 73.2151 415.037 73.4525 414.805 73.5966L406.585 78.6962C406.429 78.7926 406.252 78.8426 406.072 78.8411Z" fill="#455A64"/>
<path d="M406.072 83.9407C405.85 83.9393 405.634 83.8594 405.458 83.7132C405.282 83.567 405.156 83.3626 405.099 83.1317C405.042 82.9009 405.058 82.6563 405.144 82.4359C405.229 82.2155 405.38 82.0315 405.573 81.9124L413.793 76.8127C414.025 76.6686 414.302 76.6297 414.561 76.7044C414.821 76.7791 415.042 76.9614 415.176 77.2111C415.31 77.4609 415.347 77.7576 415.277 78.0361C415.207 78.3146 415.037 78.552 414.805 78.6961L406.585 83.7958C406.427 83.8859 406.251 83.9355 406.072 83.9407V83.9407Z" fill="#455A64"/>
<path d="M406.072 89.0404C405.85 89.0391 405.634 88.9591 405.458 88.8129C405.282 88.6667 405.156 88.4623 405.099 88.2315C405.042 88.0006 405.058 87.756 405.144 87.5356C405.229 87.3152 405.38 87.1312 405.573 87.0121L413.793 81.9124C414.02 81.7751 414.289 81.7391 414.542 81.8123C414.794 81.8854 415.01 82.0618 415.142 82.3036C415.267 82.5491 415.298 82.8365 415.23 83.1064C415.163 83.3762 415 83.6075 414.778 83.7524L406.558 88.8375C406.415 88.9489 406.248 89.0188 406.072 89.0404Z" fill="#455A64"/>
</g>
<path d="M113.433 273.976L113.419 294.345L419.042 104.948L419.069 84.5347L113.433 273.976Z" fill="#455A64"/>
<path d="M147.661 260.98V264.921C147.661 265.732 148.187 266.051 148.835 265.645L194.724 237.177V230.266L148.835 258.735C148.487 258.981 148.198 259.314 147.994 259.705C147.79 260.095 147.676 260.533 147.661 260.98V260.98Z" fill="#FAFAFA"/>
<path d="M200.973 226.456C201.635 226.051 202.161 226.384 202.161 227.195V231.136C202.14 231.576 202.021 232.004 201.814 232.384C201.608 232.765 201.319 233.087 200.973 233.323L194.765 237.177V230.267L200.973 226.456Z" fill="#5A1017"/>
<path d="M200.515 231.86L199.826 231.628C199.895 231.315 199.931 230.994 199.934 230.672C199.965 230.372 199.923 230.069 199.812 229.792C199.701 229.516 199.524 229.275 199.3 229.093C199.15 228.994 198.977 228.942 198.801 228.942C198.624 228.942 198.452 228.994 198.301 229.093C197.867 229.458 197.518 229.927 197.284 230.463C197.05 230.999 196.936 231.587 196.952 232.179C196.918 232.481 196.959 232.787 197.071 233.067C197.182 233.346 197.36 233.59 197.586 233.773C197.72 233.859 197.874 233.904 198.031 233.903C198.233 233.899 198.43 233.834 198.598 233.715C199.122 233.321 199.514 232.757 199.718 232.106L200.407 232.338H200.488C200.542 232.338 200.594 232.32 200.638 232.286C200.681 232.252 200.714 232.205 200.731 232.15C200.732 232.082 200.711 232.016 200.672 231.963C200.632 231.91 200.577 231.874 200.515 231.86ZM198.301 233.309C198.227 233.361 198.14 233.388 198.052 233.388C197.963 233.388 197.876 233.361 197.802 233.309C197.661 233.168 197.553 232.994 197.488 232.8C197.422 232.606 197.4 232.398 197.424 232.193C197.416 231.695 197.515 231.201 197.711 230.749C197.907 230.297 198.197 229.9 198.558 229.586C198.65 229.521 198.758 229.486 198.868 229.484C198.926 229.469 198.986 229.469 199.044 229.484C199.186 229.623 199.295 229.797 199.361 229.992C199.427 230.186 199.448 230.395 199.421 230.6C199.44 231.109 199.349 231.616 199.154 232.081C198.96 232.546 198.668 232.956 198.301 233.28V233.309Z" fill="#FAFAFA"/>
<path d="M139.657 264.501L136.526 266.486C136.185 266.724 135.901 267.045 135.697 267.422C135.493 267.8 135.375 268.223 135.352 268.659V272.556C135.352 273.367 135.878 273.686 136.526 273.281L139.657 271.339C139.999 271.102 140.283 270.782 140.487 270.404C140.691 270.026 140.809 269.602 140.831 269.166V265.269C140.831 264.429 140.305 264.095 139.657 264.501Z" fill="#FAFAFA"/>
<path d="M248.482 195.395C247.264 196.25 246.25 197.401 245.523 198.755C244.796 200.11 244.377 201.628 244.298 203.189C244.298 206.087 246.174 207.217 248.482 205.782C249.701 204.927 250.715 203.776 251.442 202.421C252.168 201.067 252.588 199.548 252.666 197.988C252.666 195.134 250.79 193.96 248.482 195.395Z" fill="#5A1017"/>
<path d="M247.997 199.973C247.864 199.976 247.734 199.941 247.619 199.871C247.483 199.774 247.374 199.639 247.302 199.481C247.231 199.323 247.201 199.148 247.214 198.973C247.233 198.561 247.344 198.159 247.536 197.801C247.729 197.444 247.997 197.14 248.321 196.916V196.916C248.462 196.828 248.623 196.782 248.786 196.782C248.95 196.782 249.11 196.828 249.252 196.916C249.388 197.013 249.497 197.148 249.568 197.306C249.639 197.464 249.67 197.639 249.657 197.814C249.637 198.227 249.527 198.628 249.334 198.986C249.142 199.344 248.873 199.647 248.55 199.871C248.377 199.955 248.186 199.99 247.997 199.973V199.973Z" fill="white"/>
<path d="M250.143 200.277C249.908 200.151 249.647 200.096 249.385 200.116C249.124 200.137 248.873 200.232 248.658 200.393L248.051 200.77C247.497 201.147 247.036 201.663 246.71 202.274C246.383 202.885 246.199 203.572 246.174 204.276V204.739C246.548 204.913 246.956 204.98 247.36 204.934C247.765 204.888 248.151 204.731 248.482 204.478C249.444 203.831 250.238 202.934 250.79 201.871V201.755C250.815 201.469 250.768 201.181 250.654 200.921C250.54 200.661 250.364 200.439 250.143 200.277Z" fill="white"/>
<path d="M258.065 191.918L286.746 174.127C287.907 173.417 288.852 173.953 288.852 175.358C288.807 176.129 288.594 176.878 288.228 177.543C287.862 178.208 287.354 178.77 286.746 179.183L258.065 196.945C256.904 197.669 255.96 197.119 255.96 195.728C256.007 194.96 256.222 194.215 256.588 193.553C256.954 192.891 257.46 192.331 258.065 191.918Z" fill="#E0E0E0"/>
<path d="M301.849 164.811L319.651 153.685C320.812 152.96 321.743 153.511 321.757 154.902C321.71 155.672 321.494 156.419 321.129 157.083C320.763 157.748 320.257 158.31 319.651 158.726L301.849 169.867C300.688 170.577 299.743 170.041 299.743 168.636C299.791 167.866 300.006 167.119 300.372 166.454C300.737 165.79 301.243 165.227 301.849 164.811V164.811Z" fill="#E0E0E0"/>
<path d="M334.782 144.499L347.064 136.85C348.225 136.125 349.169 136.676 349.169 138.067C349.124 138.837 348.91 139.585 348.544 140.25C348.178 140.915 347.671 141.477 347.064 141.891L334.782 149.555C333.621 150.265 332.676 149.729 332.676 148.338C332.722 147.566 332.936 146.816 333.302 146.149C333.667 145.482 334.175 144.917 334.782 144.499Z" fill="#E0E0E0"/>
<path d="M294.345 175.981C294.209 175.981 294.078 175.923 293.982 175.82C293.886 175.717 293.832 175.577 293.832 175.431V168.636C293.851 168.507 293.913 168.39 294.006 168.305C294.099 168.221 294.216 168.174 294.338 168.174C294.46 168.174 294.577 168.221 294.67 168.305C294.763 168.39 294.824 168.507 294.844 168.636V175.431C294.844 175.574 294.792 175.712 294.699 175.815C294.605 175.918 294.478 175.977 294.345 175.981V175.981Z" fill="#263238"/>
<path d="M327.237 155.597C327.1 155.597 326.97 155.539 326.874 155.436C326.778 155.332 326.724 155.192 326.724 155.046V148.252C326.743 148.123 326.805 148.006 326.898 147.921C326.99 147.837 327.108 147.79 327.23 147.79C327.351 147.79 327.469 147.837 327.562 147.921C327.655 148.006 327.716 148.123 327.736 148.252V155.046C327.736 155.19 327.684 155.328 327.59 155.431C327.497 155.534 327.37 155.593 327.237 155.597V155.597Z" fill="#263238"/>
<path d="M354.649 138.603C354.515 138.603 354.387 138.547 354.291 138.447C354.195 138.347 354.14 138.21 354.136 138.067V131.272C354.124 131.193 354.128 131.113 354.148 131.036C354.168 130.959 354.203 130.888 354.251 130.827C354.299 130.766 354.359 130.717 354.427 130.683C354.494 130.65 354.568 130.633 354.642 130.633C354.717 130.633 354.79 130.65 354.857 130.683C354.925 130.717 354.985 130.766 355.033 130.827C355.081 130.888 355.116 130.959 355.136 131.036C355.156 131.113 355.16 131.193 355.148 131.272V138.067C355.145 138.208 355.091 138.342 354.998 138.442C354.905 138.542 354.78 138.599 354.649 138.603V138.603Z" fill="#263238"/>
<path d="M365.19 128.128V126.882C365.19 125.434 364.38 124.796 363.381 125.434C362.835 125.857 362.388 126.412 362.077 127.053C361.765 127.694 361.597 128.405 361.586 129.128V130.301C361.565 131.075 361.355 131.829 360.979 132.489V132.489C360.884 132.66 360.833 132.855 360.83 133.054C360.83 133.416 361.033 133.576 361.276 133.431L365.5 130.823C365.636 130.713 365.747 130.571 365.825 130.407C365.902 130.244 365.943 130.064 365.946 129.881V129.881C365.95 129.812 365.94 129.742 365.917 129.677C365.894 129.612 365.858 129.553 365.811 129.505V129.505C365.588 129.371 365.409 129.168 365.298 128.922C365.187 128.675 365.149 128.398 365.19 128.128Z" fill="#5A1017"/>
<path d="M364.259 131.895C364.252 132.245 364.169 132.588 364.017 132.898C363.864 133.207 363.647 133.474 363.381 133.677C362.909 133.967 362.517 133.677 362.517 132.967L364.259 131.895Z" fill="#5A1017"/>
<path d="M372.897 122.652C372.75 122.651 372.606 122.611 372.478 122.536C372.325 122.426 372.201 122.274 372.121 122.096C372.04 121.917 372.005 121.719 372.019 121.522C372.038 121.057 372.16 120.603 372.376 120.2C372.592 119.796 372.896 119.455 373.261 119.204V119.204C373.414 119.092 373.592 119.026 373.777 119.011C373.961 118.995 374.146 119.032 374.314 119.117C374.467 119.227 374.591 119.379 374.671 119.557C374.752 119.735 374.787 119.933 374.773 120.131C374.754 120.596 374.632 121.049 374.416 121.453C374.2 121.856 373.896 122.198 373.531 122.449C373.338 122.572 373.12 122.642 372.897 122.652Z" fill="#5A1017"/>
<path d="M375.313 123.058C375.049 122.92 374.756 122.86 374.464 122.886C374.172 122.911 373.892 123.021 373.652 123.202L372.964 123.623C372.343 124.053 371.827 124.637 371.458 125.325C371.09 126.013 370.879 126.785 370.845 127.578V128.099C371.267 128.292 371.727 128.367 372.183 128.316C372.638 128.266 373.074 128.091 373.45 127.81C374.527 127.088 375.422 126.093 376.055 124.912V124.782C376.087 124.449 376.036 124.113 375.905 123.81C375.774 123.506 375.57 123.246 375.313 123.058Z" fill="#5A1017"/>
<path d="M376.244 119.291C376.097 119.298 375.951 119.257 375.825 119.175C375.67 119.067 375.545 118.916 375.464 118.737C375.383 118.558 375.349 118.359 375.366 118.161C375.385 117.696 375.507 117.242 375.723 116.839C375.939 116.435 376.243 116.094 376.608 115.843V115.843C376.755 115.718 376.934 115.643 377.121 115.629C377.308 115.615 377.495 115.662 377.657 115.763C377.819 115.865 377.949 116.017 378.029 116.199C378.109 116.382 378.136 116.585 378.106 116.784C378.086 117.247 377.962 117.697 377.746 118.098C377.53 118.499 377.228 118.838 376.865 119.088C376.679 119.217 376.464 119.287 376.244 119.291V119.291Z" fill="#5A1017"/>
<path d="M378.66 119.638C378.396 119.497 378.101 119.435 377.806 119.458C377.512 119.481 377.229 119.588 376.986 119.769L376.311 120.203C375.529 120.722 374.92 121.493 374.57 122.406C374.796 122.274 375.049 122.205 375.306 122.205C375.563 122.205 375.816 122.274 376.041 122.406C376.293 122.59 376.494 122.842 376.625 123.138C376.755 123.433 376.81 123.761 376.784 124.086V124.405C377.872 123.694 378.773 122.696 379.402 121.507V121.377C379.439 121.042 379.389 120.703 379.258 120.396C379.127 120.089 378.92 119.827 378.66 119.638V119.638Z" fill="#5A1017"/>
<path d="M387.001 110.366C385.998 111.067 385.163 112.013 384.565 113.125C383.967 114.238 383.622 115.487 383.559 116.77C383.533 117.172 383.588 117.577 383.72 117.954C383.853 118.332 384.061 118.674 384.328 118.957L383.896 121.145C383.896 121.42 384.018 121.536 384.18 121.333L385.732 119.392C386.179 119.32 386.61 119.158 387.001 118.914C388 118.211 388.832 117.264 389.427 116.152C390.023 115.039 390.366 113.792 390.429 112.51C390.429 110.149 388.89 109.193 387.001 110.366Z" fill="#5A1017"/>
<path d="M403.508 100.051C403.763 99.8732 404.055 99.7639 404.358 99.7323C404.594 99.6978 404.835 99.7434 405.046 99.8626C405.253 99.9982 405.414 100.201 405.505 100.442C405.633 100.757 405.693 101.099 405.681 101.442C405.685 101.744 405.653 102.046 405.586 102.34C405.519 102.615 405.438 102.886 405.343 103.151C405.235 103.398 405.127 103.644 405.006 103.876C404.884 104.108 404.776 104.325 404.668 104.542C404.56 104.759 404.452 104.991 404.371 105.209C404.284 105.417 404.221 105.636 404.182 105.861C404.166 105.963 404.144 106.065 404.115 106.165C404.085 106.243 404.033 106.308 403.966 106.353L402.995 106.962C402.972 106.983 402.944 106.995 402.914 106.995C402.884 106.995 402.855 106.983 402.833 106.962C402.785 106.901 402.761 106.823 402.765 106.744C402.767 106.46 402.803 106.178 402.873 105.904C402.949 105.628 403.039 105.358 403.143 105.093C403.251 104.846 403.373 104.586 403.494 104.354C403.616 104.122 403.737 103.89 403.845 103.673C403.949 103.477 404.039 103.274 404.115 103.064C404.186 102.886 404.223 102.694 404.223 102.499C404.223 102.239 404.223 102.079 404.047 102.007C403.872 101.934 403.751 102.007 403.508 102.123C403.298 102.245 403.117 102.419 402.981 102.63C402.885 102.798 402.808 102.978 402.752 103.166C402.752 103.34 402.657 103.499 402.63 103.629C402.599 103.757 402.527 103.87 402.428 103.948L401.443 104.557C401.423 104.573 401.4 104.582 401.375 104.582C401.351 104.582 401.327 104.573 401.308 104.557C401.288 104.501 401.288 104.439 401.308 104.383C401.317 104.016 401.367 103.651 401.456 103.296C401.569 102.877 401.718 102.469 401.901 102.079C402.097 101.672 402.333 101.289 402.603 100.935C402.851 100.583 403.158 100.283 403.508 100.051V100.051ZM404.209 108.744C404.206 108.844 404.183 108.943 404.142 109.033C404.111 109.114 404.059 109.184 403.994 109.236L402.968 109.859C402.948 109.88 402.921 109.891 402.894 109.891C402.866 109.891 402.839 109.88 402.819 109.859C402.771 109.799 402.747 109.721 402.752 109.642V108.294C402.755 108.194 402.778 108.095 402.819 108.005C402.846 107.921 402.898 107.85 402.968 107.802L403.994 107.164C404.015 107.147 404.041 107.137 404.068 107.137C404.095 107.137 404.121 107.147 404.142 107.164C404.19 107.225 404.214 107.303 404.209 107.382V108.744Z" fill="#5A1017"/>
<path d="M162.764 274.193V334.897C162.764 336.896 164.113 337.707 165.692 336.708L366.796 212.027C367.644 211.429 368.35 210.626 368.856 209.683C369.363 208.739 369.656 207.681 369.711 206.594V145.905C369.711 143.905 368.362 143.094 366.796 144.094L165.692 268.76C164.84 269.354 164.131 270.156 163.622 271.1C163.113 272.044 162.819 273.104 162.764 274.193V274.193Z" fill="#5A1017"/>
<path opacity="0.7" d="M162.764 274.193V334.897C162.764 336.896 164.113 337.707 165.692 336.708L366.796 212.027C367.644 211.429 368.35 210.626 368.856 209.683C369.363 208.739 369.656 207.681 369.711 206.594V145.905C369.711 143.905 368.362 143.094 366.796 144.094L165.692 268.76C164.84 269.354 164.131 270.156 163.622 271.1C163.113 272.044 162.819 273.104 162.764 274.193V274.193Z" fill="white"/>
<path d="M179.216 283.031C173.156 286.798 168.243 295.925 168.243 303.43C168.243 310.934 173.156 313.977 179.216 310.224C185.276 306.472 190.189 297.345 190.176 289.826C190.162 282.306 185.263 279.279 179.216 283.031Z" fill="#5A1017"/>
<path d="M177.934 295.012C177.593 295.017 177.257 294.922 176.962 294.737C176.604 294.482 176.317 294.128 176.132 293.712C175.947 293.296 175.87 292.834 175.91 292.375C175.955 291.3 176.24 290.252 176.74 289.32C177.24 288.387 177.941 287.597 178.784 287.015V287.015C179.123 286.719 179.538 286.54 179.974 286.503C180.409 286.465 180.845 286.57 181.224 286.804C181.602 287.038 181.906 287.389 182.095 287.812C182.283 288.236 182.348 288.71 182.28 289.173C182.232 290.249 181.945 291.297 181.442 292.23C180.94 293.163 180.237 293.952 179.392 294.534C178.954 294.828 178.451 294.993 177.934 295.012V295.012Z" fill="white"/>
<path d="M183.549 295.794C182.938 295.469 182.257 295.327 181.578 295.383C180.898 295.439 180.245 295.691 179.688 296.113L178.096 297.098C176.653 298.095 175.452 299.447 174.593 301.042C173.734 302.637 173.241 304.429 173.156 306.269V307.486C174.722 308.413 176.854 308.254 179.216 306.79C181.736 305.106 183.816 302.763 185.263 299.981V299.692C185.317 298.938 185.188 298.182 184.887 297.499C184.587 296.815 184.125 296.228 183.549 295.794V295.794Z" fill="white"/>
<path d="M197.761 280.553L220.989 266.167C222.15 265.443 223.095 265.906 223.095 267.181C223.031 267.919 222.808 268.631 222.442 269.26C222.077 269.889 221.579 270.417 220.989 270.803L197.761 285.189C196.6 285.914 195.656 285.465 195.656 284.175C195.719 283.437 195.942 282.725 196.308 282.096C196.674 281.467 197.171 280.939 197.761 280.553V280.553Z" fill="#455A64"/>
<path d="M196.897 290.202L210.556 281.741C211.231 281.307 211.784 281.582 211.784 282.335C211.747 282.768 211.617 283.185 211.403 283.555C211.19 283.925 210.9 284.236 210.556 284.465L196.897 292.926C196.209 293.346 195.656 293.085 195.656 292.332C195.691 291.897 195.822 291.477 196.038 291.107C196.254 290.737 196.548 290.427 196.897 290.202V290.202Z" fill="#455A64"/>
<path d="M165.692 336.78L366.796 212.186C367.644 211.589 368.35 210.786 368.856 209.842C369.363 208.899 369.656 207.84 369.711 206.753V196.8L162.764 325.002V334.969C162.764 336.968 164.073 337.78 165.692 336.78Z" fill="#F5F5F5"/>
<path d="M217.588 301.676C217.522 301.678 217.456 301.666 217.395 301.64C217.333 301.613 217.278 301.574 217.231 301.524C217.184 301.474 217.147 301.414 217.123 301.348C217.099 301.282 217.087 301.211 217.089 301.14V294.346C217.087 294.274 217.099 294.203 217.123 294.136C217.147 294.069 217.184 294.008 217.23 293.957C217.277 293.906 217.332 293.865 217.394 293.837C217.455 293.809 217.521 293.795 217.588 293.795C217.724 293.795 217.855 293.853 217.951 293.956C218.047 294.06 218.101 294.2 218.101 294.346V301.14C218.101 301.212 218.088 301.283 218.062 301.349C218.036 301.415 217.998 301.475 217.95 301.525C217.902 301.575 217.846 301.614 217.783 301.64C217.721 301.666 217.655 301.678 217.588 301.676V301.676Z" fill="#EBEBEB"/>
<path d="M193.064 310.63L210.853 299.489C212.014 298.779 212.959 299.315 212.959 300.72C212.911 301.49 212.696 302.237 212.33 302.902C211.965 303.566 211.459 304.129 210.853 304.545L193.064 315.744C191.904 316.468 190.959 315.918 190.959 314.527C190.996 313.744 191.206 312.982 191.572 312.305C191.938 311.627 192.45 311.053 193.064 310.63V310.63Z" fill="#E0E0E0"/>
<path d="M249.724 281.64C249.657 281.64 249.591 281.626 249.53 281.598C249.468 281.57 249.413 281.529 249.366 281.478C249.32 281.426 249.283 281.366 249.259 281.299C249.235 281.232 249.223 281.161 249.225 281.089V274.295C249.225 274.152 249.277 274.016 249.371 273.916C249.465 273.815 249.592 273.759 249.724 273.759C249.858 273.758 249.986 273.815 250.082 273.915C250.178 274.015 250.234 274.151 250.237 274.295V281.089C250.237 281.235 250.183 281.375 250.087 281.479C249.991 281.582 249.86 281.64 249.724 281.64V281.64Z" fill="#EBEBEB"/>
<path d="M225.2 290.579L242.989 279.525C244.15 278.8 245.095 279.351 245.095 280.742C245.05 281.512 244.835 282.26 244.469 282.925C244.103 283.59 243.596 284.152 242.989 284.566L225.2 295.708C224.04 296.432 223.095 295.881 223.095 294.491C223.13 293.706 223.339 292.941 223.705 292.26C224.071 291.58 224.584 291.003 225.2 290.579V290.579Z" fill="#E0E0E0"/>
<path d="M281.86 261.589C281.726 261.589 281.598 261.533 281.502 261.433C281.406 261.332 281.351 261.196 281.347 261.053V254.258C281.347 254.112 281.401 253.972 281.498 253.869C281.594 253.765 281.724 253.707 281.86 253.707C281.927 253.707 281.993 253.722 282.054 253.75C282.116 253.777 282.172 253.818 282.218 253.87C282.265 253.921 282.301 253.982 282.325 254.048C282.35 254.115 282.361 254.186 282.36 254.258V261.053C282.36 261.195 282.307 261.331 282.213 261.432C282.12 261.532 281.993 261.589 281.86 261.589V261.589Z" fill="#EBEBEB"/>
<path d="M257.336 270.542L275.125 259.401C276.286 258.691 277.231 259.227 277.231 260.633C277.183 261.403 276.968 262.15 276.602 262.814C276.237 263.479 275.731 264.042 275.125 264.458L257.336 275.584C256.175 276.308 255.231 275.758 255.231 274.367C255.278 273.597 255.493 272.85 255.859 272.185C256.225 271.521 256.731 270.958 257.336 270.542Z" fill="#E0E0E0"/>
<path d="M313.996 241.553C313.86 241.553 313.73 241.495 313.634 241.391C313.538 241.288 313.484 241.148 313.484 241.002V234.207C313.483 234.136 313.497 234.065 313.523 233.999C313.549 233.933 313.587 233.873 313.635 233.823C313.682 233.773 313.739 233.734 313.801 233.708C313.863 233.682 313.93 233.669 313.996 233.671C314.062 233.669 314.128 233.682 314.19 233.708C314.251 233.734 314.307 233.774 314.354 233.824C314.4 233.874 314.437 233.934 314.462 234C314.486 234.066 314.498 234.136 314.496 234.207V241.002C314.498 241.074 314.486 241.145 314.462 241.212C314.437 241.278 314.401 241.339 314.354 241.39C314.308 241.442 314.252 241.483 314.191 241.51C314.129 241.538 314.063 241.553 313.996 241.553V241.553Z" fill="#EBEBEB"/>
<path d="M289.472 250.549L307.261 239.423C308.422 238.698 309.367 239.249 309.367 240.64C309.322 241.41 309.107 242.159 308.741 242.823C308.375 243.488 307.868 244.05 307.261 244.465L289.472 255.606C288.298 256.33 287.367 255.779 287.367 254.389C287.409 253.615 287.622 252.864 287.988 252.196C288.354 251.529 288.863 250.964 289.472 250.549V250.549Z" fill="#E0E0E0"/>
<path d="M321.595 230.455L339.397 219.314C340.558 218.604 341.503 219.14 341.503 220.545C341.455 221.315 341.24 222.063 340.875 222.727C340.509 223.391 340.003 223.954 339.397 224.37L321.595 235.497C320.434 236.221 319.503 235.671 319.503 234.28C319.548 233.511 319.76 232.764 320.124 232.099C320.487 231.435 320.991 230.872 321.595 230.455V230.455Z" fill="#E0E0E0"/>
<path d="M155.759 540.144L173.696 529.047C173.696 529.047 184.831 493.87 182.011 461.476C178.461 421.229 160.753 407.017 150.36 411.566C139.968 416.115 142.114 432.095 153.141 453.58C161.846 470.661 161.873 509.952 155.759 540.144Z" fill="#5A1017"/>
<path opacity="0.1" d="M155.759 540.144L173.696 529.047C173.696 529.047 184.831 493.87 182.011 461.476C178.461 421.229 160.753 407.017 150.36 411.566C139.968 416.115 142.114 432.095 153.141 453.58C161.846 470.661 161.873 509.952 155.759 540.144Z" fill="black"/>
<path d="M164.329 535.725C164.5 535.726 164.665 535.668 164.803 535.562C164.942 535.455 165.045 535.304 165.099 535.131C176.652 497.159 177.138 443.859 155.273 419.795C155.199 419.713 155.11 419.648 155.012 419.603C154.914 419.558 154.809 419.534 154.702 419.532C154.596 419.531 154.49 419.552 154.391 419.595C154.292 419.637 154.202 419.7 154.126 419.78C154.05 419.86 153.989 419.955 153.947 420.06C153.905 420.166 153.883 420.279 153.881 420.393C153.88 420.507 153.9 420.621 153.94 420.727C153.979 420.833 154.038 420.93 154.112 421.012C174.749 443.699 175.113 496.579 163.56 534.581C163.527 534.69 163.514 534.806 163.522 534.92C163.53 535.035 163.56 535.147 163.609 535.249C163.658 535.352 163.725 535.443 163.807 535.517C163.889 535.591 163.984 535.647 164.086 535.682C164.165 535.71 164.247 535.725 164.329 535.725V535.725Z" fill="white"/>
<path d="M123.475 560.123C121.612 561.267 117.779 558.761 116.321 557.703C113.812 555.867 111.782 553.374 110.423 550.459C108.906 547.137 108.387 543.391 108.938 539.738C109.241 537.812 109.665 535.91 110.207 534.045C110.707 532.205 111.192 530.365 111.692 528.51C112.289 526.729 112.546 524.837 112.448 522.947C111.989 519.166 108.871 516.515 106.023 514.254C102.878 511.734 99.6122 508.387 99.6257 503.838C99.8498 500.302 101.165 496.948 103.364 494.305C105.389 491.552 107.791 489.118 109.627 486.206C111.072 484.182 111.825 481.686 111.759 479.136C111.561 477.576 111.075 476.074 110.329 474.718C108.831 471.748 106.846 469.038 105.821 465.851C104.795 462.664 104.93 458.709 107.251 456.434C109.154 454.565 111.975 454.304 114.553 454.478C116.949 454.8 119.251 455.675 121.302 457.043C128.05 461.07 131.883 469.618 139.023 472.718C141.722 473.906 144.8 474.167 147.675 474.978C150.549 475.79 153.478 477.369 154.801 480.223C157.433 485.844 152.56 492.784 154.396 498.753C156.029 504.026 160.821 505.997 163.506 510.806C164.6 512.908 165.039 515.329 164.762 517.717C164.533 521.758 163.618 525.72 162.062 529.409C160.319 533.068 158.325 536.584 156.097 539.927C155.975 540.014 123.758 559.949 123.475 560.123Z" fill="#5A1017"/>
<path d="M142.721 548.996C142.898 548.991 143.067 548.918 143.198 548.79C143.33 548.663 143.414 548.489 143.436 548.301C146.905 518.804 133.786 479.006 114.189 459.607C114.044 459.488 113.864 459.431 113.683 459.447C113.501 459.464 113.332 459.552 113.209 459.696C113.085 459.839 113.016 460.027 113.015 460.223C113.014 460.418 113.081 460.606 113.203 460.751C132.49 479.861 145.407 519.05 141.992 548.112C141.969 548.318 142.023 548.525 142.142 548.687C142.261 548.85 142.435 548.956 142.627 548.981L142.721 548.996Z" fill="white"/>
<path d="M139.36 511.212C139.474 511.212 139.585 511.183 139.686 511.128C139.787 511.072 139.874 510.992 139.941 510.893C140.055 510.729 140.105 510.524 140.08 510.321C140.055 510.117 139.956 509.933 139.806 509.807C129.008 501.114 112.461 502.563 111.773 502.679C111.677 502.688 111.583 502.717 111.498 502.765C111.413 502.813 111.337 502.879 111.276 502.958C111.214 503.038 111.168 503.13 111.14 503.228C111.112 503.327 111.102 503.431 111.111 503.534C111.132 503.737 111.224 503.925 111.37 504.057C111.516 504.189 111.704 504.256 111.894 504.244C112.069 504.244 128.563 502.708 138.888 511.053C139.024 511.161 139.19 511.218 139.36 511.212V511.212Z" fill="white"/>
<path d="M137.741 503.968C137.926 503.968 138.104 503.891 138.237 503.754C138.371 503.616 138.449 503.428 138.456 503.229C138.955 489.712 148.457 481.498 148.552 481.498C148.628 481.435 148.692 481.357 148.741 481.268C148.789 481.178 148.82 481.08 148.833 480.977C148.845 480.875 148.839 480.771 148.814 480.671C148.789 480.572 148.746 480.478 148.687 480.397C148.565 480.236 148.39 480.133 148.198 480.109C148.007 480.084 147.814 480.141 147.661 480.266C144.532 483.113 141.975 486.613 140.144 490.552C138.314 494.492 137.248 498.79 137.012 503.186C137.005 503.391 137.073 503.591 137.201 503.743C137.33 503.894 137.509 503.986 137.7 503.997L137.741 503.968Z" fill="white"/>
<path d="M316.277 535.58C304.308 528.16 294.049 517.94 286.264 505.68C278.478 493.421 273.366 479.436 271.306 464.764L261.736 396.571C259.913 383.569 255.689 371.088 249.31 359.863C242.932 348.638 234.528 338.893 224.593 331.202L212.108 321.539V329.188L218.857 334.433C228.767 342.11 237.153 351.829 243.525 363.022C249.898 374.216 254.13 386.66 255.973 399.628L265.731 468.299C267.812 482.937 272.932 496.885 280.711 509.113C288.491 521.34 298.732 531.535 310.676 538.941L316.25 542.389V535.595L316.277 535.58Z" fill="#EBEBEB"/>
<path d="M424.806 369.624L415.236 301.43C413.414 288.429 409.191 275.95 402.815 264.725C396.439 253.5 388.039 243.755 378.107 236.062L365.622 226.384L212.108 321.539L224.593 331.217C234.528 338.908 242.932 348.652 249.31 359.878C255.689 371.103 259.913 383.583 261.736 396.585L271.306 464.779C273.366 479.451 278.478 493.435 286.264 505.695C294.049 517.955 304.308 528.174 316.277 535.595V535.595L469.791 440.454C457.815 433.036 447.552 422.816 439.763 410.553C431.975 398.29 426.862 384.3 424.806 369.624V369.624Z" fill="#FAFAFA"/>
<path d="M365.541 228.108L377.31 237.235C387.077 244.84 395.34 254.449 401.623 265.505C407.907 276.562 412.084 288.846 413.914 301.648L423.47 369.841C425.469 384.326 430.416 398.159 437.96 410.359C445.504 422.558 455.46 432.824 467.118 440.425L316.277 533.9C304.633 526.58 294.666 516.549 287.112 504.547C279.558 492.544 274.609 478.875 272.628 464.547L263.073 396.354C261.19 383.171 256.89 370.519 250.422 359.132C243.953 347.745 235.445 337.848 225.389 330.015L214.592 321.655L365.541 228.108M365.622 226.384L212.108 321.539L224.593 331.217C234.528 338.908 242.932 348.652 249.31 359.878C255.689 371.103 259.913 383.583 261.736 396.585L271.306 464.779C273.366 479.451 278.478 493.435 286.264 505.695C294.049 517.955 304.308 528.174 316.277 535.595V535.595L469.791 440.454C457.817 433.038 447.554 422.82 439.766 410.559C431.978 398.299 426.864 384.312 424.806 369.638L415.236 301.445C413.416 288.441 409.194 275.959 402.818 264.732C396.442 253.504 388.04 243.756 378.107 236.062L365.622 226.384V226.384Z" fill="#E0E0E0"/>
<path d="M316.277 535.58L469.791 440.44V447.234L316.277 542.375V535.58Z" fill="#F5F5F5"/>
<path d="M240.789 316.41C235.39 318.859 234.864 323.872 239.507 327.638C242.14 329.533 245.153 330.734 248.3 331.144C251.447 331.554 254.64 331.162 257.62 330C263.018 327.566 263.558 322.539 258.969 318.786C256.33 316.875 253.306 315.663 250.146 315.25C246.985 314.837 243.778 315.234 240.789 316.41V316.41Z" fill="#5A1017"/>
<path d="M246.593 322.51C246.144 322.563 245.692 322.563 245.243 322.51C244.241 322.418 243.278 322.048 242.449 321.438C241.207 320.438 241.342 319.134 242.787 318.54C243.734 318.159 244.756 318.044 245.756 318.207C246.757 318.313 247.718 318.686 248.55 319.294C249.791 320.293 249.643 321.597 248.212 322.191C247.693 322.396 247.146 322.503 246.593 322.51V322.51Z" fill="white"/>
<path d="M254.192 322.379C252.61 322.124 250.994 322.303 249.495 322.901L248.145 323.538C245.702 324.668 245.446 326.885 247.578 328.595L248.334 329.203C250.889 329.606 253.496 329.383 255.96 328.551C258.281 327.595 259.698 326.494 259.901 324.915L258.861 324.176C257.472 323.16 255.865 322.542 254.192 322.379Z" fill="white"/>
<path d="M265.718 305.719L310.798 277.772C311.679 277.272 312.67 277.037 313.666 277.093C314.662 277.15 315.625 277.494 316.453 278.091L316.858 278.438C317.191 278.668 317.461 278.991 317.637 279.372C317.813 279.753 317.889 280.179 317.857 280.603C317.825 281.027 317.686 281.434 317.456 281.78C317.225 282.126 316.911 282.398 316.547 282.567L271.508 310.572C270.636 311.043 269.658 311.244 268.686 311.152C267.713 311.06 266.783 310.678 266.001 310.05C265.839 309.92 265.677 309.79 265.529 309.645C265.191 309.45 264.911 309.156 264.722 308.797C264.534 308.438 264.444 308.029 264.464 307.617C264.484 307.206 264.612 306.809 264.834 306.473C265.056 306.136 265.363 305.875 265.718 305.719V305.719Z" fill="#455A64"/>
<path d="M275.625 316.99L298.191 303.009C298.372 302.914 298.528 302.772 298.645 302.595C298.761 302.418 298.834 302.212 298.857 301.997C298.879 301.782 298.852 301.565 298.775 301.364C298.699 301.164 298.577 300.987 298.421 300.851L298.016 300.43C297.654 300.081 297.199 299.862 296.716 299.802C296.232 299.743 295.743 299.846 295.316 300.097L272.871 314.179C272.69 314.276 272.534 314.421 272.418 314.599C272.302 314.777 272.23 314.983 272.207 315.199C272.184 315.415 272.212 315.634 272.288 315.835C272.364 316.036 272.485 316.214 272.642 316.352L272.925 316.642C273.288 316.99 273.741 317.209 274.224 317.272C274.707 317.334 275.196 317.235 275.625 316.99V316.99Z" fill="#455A64"/>
<path opacity="0.2" d="M260.873 343.546L382.507 268.137C383.308 267.654 384.247 267.504 385.146 267.715C386.044 267.926 386.839 268.483 387.379 269.282L387.635 269.673C387.879 270.061 388.045 270.499 388.123 270.959C388.201 271.42 388.188 271.892 388.087 272.347C387.985 272.802 387.797 273.23 387.533 273.602C387.27 273.975 386.937 274.285 386.556 274.512L264.854 349.978C264.063 350.451 263.135 350.587 262.255 350.359C261.374 350.131 260.606 349.555 260.103 348.747L259.847 348.327C259.598 347.949 259.426 347.518 259.342 347.064C259.259 346.609 259.266 346.141 259.363 345.69C259.46 345.238 259.644 344.814 259.904 344.445C260.165 344.075 260.495 343.769 260.873 343.546Z" fill="black"/>
<path opacity="0.2" d="M268.255 356.411L390.024 280.973C390.399 280.732 390.817 280.578 391.251 280.521C391.685 280.464 392.125 280.505 392.544 280.641C392.962 280.778 393.349 281.007 393.68 281.313C394.011 281.62 394.278 281.998 394.465 282.422L394.654 282.842C395.017 283.75 395.061 284.769 394.778 285.709C394.495 286.65 393.904 287.448 393.115 287.956L271.319 363.495C270.956 363.732 270.55 363.883 270.128 363.937C269.707 363.992 269.279 363.949 268.874 363.812C268.469 363.675 268.096 363.446 267.78 363.142C267.463 362.837 267.211 362.464 267.041 362.047L266.825 361.583C266.409 360.687 266.325 359.654 266.591 358.694C266.856 357.735 267.451 356.918 268.255 356.411V356.411Z" fill="black"/>
<path opacity="0.2" d="M273.735 370.392L395.612 294.867C395.958 294.623 396.353 294.47 396.766 294.423C397.178 294.375 397.595 294.434 397.981 294.594C398.368 294.754 398.714 295.011 398.989 295.343C399.265 295.675 399.463 296.073 399.566 296.504L399.728 297.156C399.954 298.156 399.88 299.208 399.517 300.16C399.153 301.112 398.519 301.917 397.704 302.459L275.881 378.041C275.543 378.283 275.154 378.431 274.75 378.473C274.345 378.515 273.937 378.45 273.562 378.282C273.187 378.114 272.856 377.85 272.599 377.512C272.342 377.175 272.167 376.774 272.088 376.346C272.088 376.114 271.967 375.882 271.899 375.651C271.647 374.678 271.689 373.645 272.019 372.7C272.349 371.755 272.95 370.947 273.735 370.392V370.392Z" fill="black"/>
<path opacity="0.2" d="M277.231 385.632L348.076 341.72C348.391 341.468 348.764 341.314 349.156 341.274C349.547 341.234 349.941 341.31 350.294 341.494C350.648 341.677 350.948 341.962 351.161 342.316C351.374 342.67 351.493 343.081 351.504 343.502L351.653 344.516C351.755 345.567 351.584 346.627 351.157 347.579C350.73 348.531 350.065 349.336 349.237 349.906L278.392 393.861C278.077 394.113 277.705 394.267 277.315 394.308C276.925 394.349 276.532 394.274 276.179 394.092C275.826 393.91 275.526 393.627 275.311 393.275C275.097 392.923 274.977 392.514 274.963 392.094C274.963 391.732 274.869 391.384 274.815 391.022C274.723 389.973 274.899 388.916 275.325 387.967C275.751 387.017 276.41 386.21 277.231 385.632V385.632Z" fill="black"/>
<path d="M423.726 426.952L307.801 498.81C306.199 499.802 304.311 500.12 302.503 499.702C300.695 499.285 299.096 498.161 298.016 496.55C290.682 484.497 285.788 469.483 283.331 451.508L278.702 418.491C278.502 416.388 278.847 414.267 279.7 412.363C280.552 410.458 281.879 408.843 283.534 407.697L399.607 335.723C402.832 333.723 405.91 335.317 406.463 339.272L411.093 372.304C412.633 388.35 417.633 403.791 425.696 417.404C426.193 418.155 426.538 419.01 426.708 419.913C426.879 420.816 426.871 421.748 426.685 422.647C426.5 423.547 426.14 424.395 425.63 425.136C425.121 425.878 424.472 426.496 423.726 426.952V426.952Z" fill="#5A1017"/>
<path opacity="0.7" d="M423.726 426.952L307.801 498.81C306.199 499.802 304.311 500.12 302.503 499.702C300.695 499.285 299.096 498.161 298.016 496.55C290.682 484.497 285.788 469.483 283.331 451.508L278.702 418.491C278.502 416.388 278.847 414.267 279.7 412.363C280.552 410.458 281.879 408.843 283.534 407.697L399.607 335.723C402.832 333.723 405.91 335.317 406.463 339.272L411.093 372.304C412.633 388.35 417.633 403.791 425.696 417.404C426.193 418.155 426.538 419.01 426.708 419.913C426.879 420.816 426.871 421.748 426.685 422.647C426.5 423.547 426.14 424.395 425.63 425.136C425.121 425.878 424.472 426.496 423.726 426.952V426.952Z" fill="white"/>
<path d="M307.801 498.811L423.726 426.952C424.472 426.496 425.121 425.878 425.631 425.136C426.141 424.395 426.5 423.547 426.686 422.648C426.871 421.748 426.879 420.816 426.709 419.913C426.538 419.01 426.194 418.156 425.696 417.404C421.905 411.096 418.816 404.332 416.492 397.252L380.522 386.357L364.556 424.402L381.899 439.368L321.379 405.177L290.431 480.701C292.47 486.242 295.011 491.556 298.016 496.565C299.098 498.174 300.698 499.294 302.506 499.709C304.314 500.124 306.201 499.804 307.801 498.811Z" fill="#5A1017"/>
<path d="M356.417 378.287C360.682 375.651 364.744 377.838 365.5 383.184C365.79 385.995 365.348 388.837 364.223 391.395C363.098 393.952 361.335 396.125 359.13 397.672C354.865 400.323 350.802 398.121 350.06 392.775C349.768 389.965 350.207 387.124 351.329 384.566C352.452 382.008 354.213 379.835 356.417 378.287V378.287Z" fill="#5A1017"/>
<path d="M391.617 469.531C391.231 469.567 390.842 469.567 390.456 469.531C389.614 469.445 388.806 469.131 388.108 468.618C387.082 467.792 387.203 466.706 388.391 466.155C389.179 465.839 390.029 465.745 390.861 465.88C391.701 465.968 392.507 466.277 393.209 466.778C394.235 467.619 394.114 468.705 392.926 469.256C392.508 469.428 392.065 469.521 391.617 469.531Z" fill="#5A1017"/>
<path d="M397.974 469.429C396.652 469.21 395.299 469.359 394.046 469.864L392.872 470.386C390.834 471.327 390.618 473.182 392.4 474.616L393.021 475.123C395.16 475.455 397.342 475.267 399.405 474.573C401.335 473.776 402.522 472.849 402.698 471.53L401.821 470.922C400.678 470.079 399.354 469.565 397.974 469.429Z" fill="#5A1017"/>
<path d="M400.201 463.968L395.855 464.2L394.681 465.286C394.633 465.328 394.594 465.381 394.567 465.441C394.541 465.502 394.527 465.567 394.527 465.634C394.527 465.7 394.541 465.766 394.567 465.826C394.594 465.886 394.633 465.939 394.681 465.982L395.855 466.981L400.268 466.793L400.201 463.968ZM395.558 465.938C395.516 465.938 395.475 465.929 395.436 465.911C395.397 465.894 395.363 465.868 395.334 465.835C395.305 465.803 395.282 465.764 395.267 465.722C395.252 465.68 395.246 465.635 395.248 465.59C395.248 465.502 395.28 465.417 395.338 465.355C395.397 465.292 395.476 465.257 395.558 465.257C395.6 465.255 395.642 465.262 395.681 465.278C395.72 465.294 395.756 465.318 395.786 465.35C395.817 465.381 395.841 465.418 395.857 465.459C395.873 465.501 395.882 465.545 395.882 465.59C395.882 465.683 395.848 465.771 395.787 465.836C395.726 465.901 395.644 465.938 395.558 465.938V465.938Z" fill="#5A1017"/>
<path d="M422.7 455.709C422.7 456.419 421.85 457.013 421.35 457.303C420.408 457.867 419.371 458.227 418.3 458.361C417.274 457.071 419.245 454.826 422.7 455.709Z" fill="#5A1017"/>
<path d="M422.862 451.146C419.677 448.321 414.683 447.278 411.174 449.436C407.665 451.595 406.976 456.159 410.202 458.984C413.428 461.809 419.191 461.881 422.673 459.694C426.155 457.506 426.061 453.957 422.862 451.146ZM417.598 450.48C417.893 450.327 418.224 450.274 418.547 450.328C418.87 450.382 419.17 450.541 419.407 450.784C419.511 450.877 419.591 450.996 419.641 451.131C419.691 451.265 419.709 451.411 419.693 451.555C419.677 451.699 419.627 451.837 419.549 451.955C419.471 452.073 419.366 452.169 419.245 452.233C418.949 452.407 418.611 452.48 418.275 452.441C417.94 452.402 417.623 452.254 417.369 452.015C417.265 451.91 417.187 451.779 417.141 451.634C417.095 451.489 417.083 451.334 417.106 451.182C417.129 451.031 417.185 450.888 417.271 450.766C417.357 450.643 417.469 450.545 417.598 450.48V450.48ZM411.201 455.753C411.094 455.648 411.014 455.516 410.966 455.369C410.918 455.223 410.905 455.065 410.928 454.912C410.951 454.758 411.009 454.613 411.096 454.49C411.184 454.366 411.299 454.267 411.43 454.203C411.722 454.049 412.051 453.996 412.373 454.05C412.694 454.105 412.992 454.264 413.225 454.507C413.33 454.599 413.411 454.717 413.462 454.851C413.513 454.985 413.532 455.131 413.517 455.275C413.503 455.419 413.455 455.556 413.378 455.675C413.301 455.794 413.197 455.891 413.077 455.956C412.781 456.157 412.433 456.251 412.083 456.225C411.734 456.199 411.401 456.054 411.133 455.811L411.201 455.753ZM421.782 457.868C420.289 458.724 418.617 459.157 416.924 459.129C415.452 459.152 413.995 458.82 412.659 458.158L421.728 452.667C422.209 453.002 422.612 453.45 422.906 453.977C423.201 454.505 423.38 455.097 423.429 455.71C423.331 456.2 423.123 456.658 422.825 457.043C422.527 457.429 422.146 457.732 421.715 457.926L421.782 457.868Z" fill="#5A1017"/>
<path d="M441.893 438.411C441.571 437.859 441.165 437.37 440.691 436.963C439.58 435.939 438.218 435.281 436.767 435.068C435.316 434.854 433.839 435.095 432.512 435.76C431.939 436.042 431.444 436.479 431.075 437.029C430.706 437.578 430.477 438.221 430.409 438.894C430.341 439.567 430.436 440.248 430.687 440.869C430.937 441.49 431.334 442.031 431.837 442.439C432.121 442.679 432.423 442.893 432.742 443.076V443.076C436.791 445.554 444.147 445.858 444.147 445.858C444.077 443.195 443.294 440.61 441.893 438.411V438.411ZM438.37 441.149C437.721 441.521 436.989 441.696 436.255 441.655C435.52 441.614 434.809 441.359 434.199 440.918C433.96 440.721 433.772 440.461 433.653 440.164C433.534 439.866 433.489 439.541 433.522 439.219C433.554 438.897 433.664 438.59 433.839 438.326C434.014 438.063 434.25 437.853 434.523 437.716C435.159 437.398 435.866 437.284 436.56 437.387C437.254 437.49 437.906 437.805 438.437 438.295C439.517 439.237 439.558 440.425 438.383 441.149H438.37Z" fill="#5A1017"/>
<path d="M588.536 453.71L571.18 508.083C571.069 508.429 570.861 508.729 570.584 508.942C570.307 509.155 569.975 509.269 569.634 509.269C569.293 509.269 568.961 509.155 568.684 508.942C568.407 508.729 568.199 508.429 568.089 508.083L550.961 453.276L588.536 453.71Z" fill="#FFA8A7"/>
<path d="M568.089 508.069C568.199 508.415 568.407 508.715 568.684 508.928C568.961 509.14 569.293 509.255 569.634 509.255C569.975 509.255 570.307 509.14 570.584 508.928C570.861 508.715 571.069 508.415 571.179 508.069L574.567 497.449C573.106 498.288 571.458 498.679 569.803 498.579C568.149 498.48 566.552 497.893 565.187 496.884L564.431 496.333L568.089 508.069Z" fill="#263238"/>
<path d="M551.609 210.824V216.141V222.559L550.988 453.261C555.141 457.968 560.794 460.824 566.82 461.258C575.903 462.273 585.23 459.071 588.55 453.71L589.157 223.139V210.868C588.712 218.807 551.285 218.792 551.609 210.824Z" fill="#5A1017"/>
<path d="M551.501 231.063V242.943C551.393 246.391 558.249 248.623 566.118 249.39C576.592 250.462 588.928 247.42 589.063 242.856V234.091V230.962C588.901 235.526 576.565 238.583 566.118 237.51C558.56 236.757 551.946 234.613 551.568 231.44C551.513 231.324 551.49 231.193 551.501 231.063Z" fill="#EBEBEB"/>
<path d="M551.528 234.034C551.258 242.031 588.806 241.929 589.076 233.932V222.038C588.806 230.035 551.285 230.136 551.528 222.139V234.034Z" fill="#5A1017"/>
<path d="M551.609 210.824V222.559C551.285 230.411 587.524 230.643 589.157 223.139C589.195 222.992 589.218 222.841 589.225 222.69V210.868C588.712 218.807 551.285 218.792 551.609 210.824Z" fill="#EBEBEB"/>
<path d="M589.319 160.523V160.016C589.319 154.293 580.924 149.643 570.559 149.643C560.193 149.643 551.784 154.293 551.784 160.016V165.42L551.609 210.824C551.474 214.229 558.222 216.474 566.051 217.286C576.524 218.387 588.914 215.417 589.144 210.868L589.306 160.885C589.333 160.726 589.319 160.552 589.319 160.523Z" fill="#F28F8F"/>
<path opacity="0.2" d="M570.558 170.389C580.927 170.389 589.333 165.745 589.333 160.016C589.333 154.287 580.927 149.643 570.558 149.643C560.19 149.643 551.784 154.287 551.784 160.016C551.784 165.745 560.19 170.389 570.558 170.389Z" fill="white"/>
<path opacity="0.1" d="M589.117 223.139L589.319 160.523C589.076 165.42 581.221 170.056 572.786 170.389L572.178 461.447L571.179 508.083L588.536 453.71L589.117 223.139Z" fill="black"/>
<path d="M528.394 271.644C535.534 270.528 544.334 276.294 550.462 285.537C556.589 294.78 577.941 317.28 580.29 324.437C581.991 329.652 580.992 339.461 570.937 334.853C561.205 330.406 530.176 297.736 530.176 297.736L528.394 271.644Z" fill="#B16668"/>
<path d="M524.979 271.643C527.278 271.115 529.62 270.833 531.971 270.803C534.441 270.977 539.988 272.556 545.697 278.525C551.406 284.494 566.226 303.777 566.226 303.777C566.226 303.777 566.887 309.195 561.92 315.237C556.953 321.278 552.311 321.278 552.311 321.278L530.297 301.705L524.979 271.643Z" fill="#37474F"/>
<path d="M573.352 313.817L589.009 289.42V271.499C589.009 271.499 592.464 272.745 593.841 278.525C595.217 284.306 596.932 291.028 596.243 295.911C595.555 300.793 584.717 330.609 578.873 334.81C573.029 339.012 573.352 313.817 573.352 313.817Z" fill="#B16668"/>
<path d="M502.885 263.545L505.935 284.176L524.98 283.074L522.253 259.112L502.885 263.545Z" fill="#B16668"/>
<path d="M490.076 238.249C490.076 238.249 485.542 245.638 486.027 246.363C486.513 247.087 489.887 247.811 489.887 247.811L490.076 238.249Z" fill="#9A4A4D"/>
<path d="M502.629 217.793C493.451 219.879 490.792 224.211 489.928 239.872C489.024 256.243 490.576 261.386 492.628 263.588C493.977 265.037 501.495 265.341 505.288 264.226C510.025 262.777 520.755 258.735 525.776 250.506C531.674 240.828 533.226 227.688 526.91 222.313C518.015 214.721 506.422 216.953 502.629 217.793Z" fill="#B16668"/>
<path d="M503.061 264.675C504.697 264.356 506.311 263.921 507.893 263.371C506.69 264.845 505.075 265.861 503.29 266.269L503.061 264.675Z" fill="#9A4A4D"/>
<path d="M489.402 222.762C490.678 223.525 492.039 224.114 493.451 224.515C495.691 225.21 495.354 226.109 495.664 228.311C495.938 230.299 496.827 232.131 498.188 233.512C499.066 234.367 499.713 234.439 500.01 235.743C500.152 237.105 500.152 238.481 500.01 239.843C500.01 242.567 501.657 244.624 502.44 240.988C502.44 240.988 503.898 234.932 508.648 235.7C513.399 236.467 513.818 242.204 511.55 246.71C510.201 249.463 506.475 248.738 506.475 248.738C506.343 251.273 506.717 253.81 507.574 256.176C508.431 258.543 509.75 260.685 511.442 262.458C511.442 262.458 516.166 266.225 523.589 262.313C526.745 257.971 529.57 253.363 532.039 248.536C535.332 242.393 538.18 234.83 537.059 227.601C536.7 224.895 535.585 222.369 533.861 220.357C533.383 219.901 533 219.344 532.735 218.72C532.47 218.097 532.33 217.421 532.322 216.735C532.039 215.102 531.226 213.628 530.027 212.577C529.088 211.779 527.965 211.268 526.777 211.097C525.59 210.927 524.381 211.102 523.279 211.606C523.186 210.344 522.724 209.146 521.958 208.183C521.191 207.22 520.161 206.542 519.014 206.246C516.692 205.725 514.274 206.083 512.171 207.26C511.555 206.074 510.671 205.074 509.6 204.35C508.53 203.626 507.307 203.202 506.045 203.117C504.782 203.032 503.52 203.289 502.374 203.863C501.228 204.438 500.234 205.312 499.484 206.405C499.136 205.83 498.665 205.352 498.112 205.01C497.558 204.667 496.937 204.47 496.299 204.435C495.026 204.387 493.756 204.603 492.56 205.073C491.544 205.396 490.566 205.844 489.645 206.405C487.98 207.511 486.682 209.152 485.936 211.095C485.19 213.038 485.033 215.184 485.488 217.228C485.751 218.39 486.234 219.481 486.907 220.433C487.581 221.385 488.43 222.178 489.402 222.762Z" fill="#263238"/>
<path d="M532.416 221.125L537.91 217.648C537.697 217.261 537.415 216.922 537.081 216.652C536.746 216.382 536.365 216.185 535.96 216.072C535.555 215.96 535.132 215.935 534.718 215.997C534.303 216.06 533.904 216.21 533.543 216.438C533.183 216.666 532.868 216.969 532.616 217.328C532.364 217.687 532.18 218.096 532.076 218.531C531.971 218.966 531.947 219.419 532.006 219.864C532.064 220.309 532.204 220.738 532.416 221.125V221.125Z" fill="#263238"/>
<path d="M537.545 527.38L537.667 528.699C537.889 530.441 537.93 532.205 537.788 533.958C537.786 534.626 537.65 535.287 537.389 535.894C537.128 536.502 536.749 537.042 536.277 537.478C535.154 538.139 533.95 538.627 532.7 538.927C529.912 539.662 526.973 539.35 524.372 538.043C522.213 536.928 520.526 535.146 518.191 534.465C515.779 533.822 513.324 533.386 510.848 533.161C509.747 533.065 508.658 532.851 507.596 532.523C506.789 532.218 506.008 531.84 505.261 531.393C502.654 530.069 500.304 528.225 498.337 525.96C497.094 524.454 496.238 522.627 495.853 520.658C495.637 519.484 495.206 516.138 497.001 516.225C505.841 516.645 514.547 518.688 523.428 518.572C524.003 518.528 524.58 518.528 525.155 518.572C526.232 518.815 527.246 519.31 528.124 520.02C528.49 520.36 528.925 520.601 529.394 520.725C529.864 520.848 530.354 520.85 530.824 520.73C532.342 520.479 533.889 520.503 535.399 520.803C535.728 520.853 536.041 520.983 536.315 521.184C536.589 521.385 536.816 521.651 536.978 521.962C537.065 522.187 537.11 522.428 537.113 522.672C537.262 524.367 537.41 525.816 537.545 527.38Z" fill="#263238"/>
<path d="M536.641 516.022L536.182 523.165C535.75 525.888 527.112 527.511 525.384 522.744L524.534 514.631L536.641 516.022Z" fill="#B16668"/>
<path d="M503.749 544.302C503.749 544.302 504.802 548.011 505.355 551.256C505.787 553.835 506.394 558.152 505.517 560.064C504.64 561.977 501.346 563.136 496.272 562.962C492.992 562.846 487.836 565.121 484.286 567.134C480.737 569.148 473.097 569.887 469.278 569.322C464.783 568.641 460.181 565.715 459.493 563.701C458.804 561.687 459.816 559.615 470.533 555.008C470.627 555.008 485.38 550.198 490.67 544.244L503.749 544.302Z" fill="#263238"/>
<path d="M503.843 539.71C503.843 539.71 503.762 542.853 503.749 544.664C503.735 546.475 501.684 549.098 496.555 548.779C492.951 548.547 490.468 547.446 490.67 544.273L490.765 539.681L503.843 539.71Z" fill="#B16668"/>
<path d="M540.123 461.099C538.598 447.191 537.424 439.208 537.424 439.208C537.424 439.208 537.693 419.824 538.773 401.758C539.92 382.228 539.664 357.643 540.123 352.775C540.123 352.775 481.695 339.388 481.209 362.003C480.669 388.284 482.289 442.656 482.64 449.741C483.126 459.679 483.153 470.024 484.718 486.148C486.27 502.085 490.765 539.681 490.765 539.681C492.777 540.835 495.023 541.438 497.304 541.438C499.585 541.438 501.831 540.835 503.843 539.681C503.843 539.681 508.932 494.609 508.729 483.178C508.607 474.87 507.867 466.586 506.516 458.405L511.118 407.379C511.118 407.379 512.927 423.156 513.413 433.095C513.898 443.033 515.167 449.103 517.462 467.604C519.446 483.642 524.48 517.514 524.48 517.514C526.394 518.672 528.571 519.235 530.766 519.141C532.962 519.046 535.089 518.297 536.911 516.978C536.911 516.978 541.648 475.022 540.123 461.099Z" fill="#5A1017"/>
<path opacity="0.3" d="M540.123 461.099C538.598 447.191 537.424 439.208 537.424 439.208C537.424 439.208 537.693 419.824 538.773 401.758C539.92 382.228 539.664 357.643 540.123 352.775C540.123 352.775 481.695 339.388 481.209 362.003C480.669 388.284 482.289 442.656 482.64 449.741C483.126 459.679 483.153 470.024 484.718 486.148C486.27 502.085 490.765 539.681 490.765 539.681C492.777 540.835 495.023 541.438 497.304 541.438C499.585 541.438 501.831 540.835 503.843 539.681C503.843 539.681 508.932 494.609 508.729 483.178C508.607 474.87 507.867 466.586 506.516 458.405L511.118 407.379C511.118 407.379 512.927 423.156 513.413 433.095C513.898 443.033 515.167 449.103 517.462 467.604C519.446 483.642 524.48 517.514 524.48 517.514C526.394 518.672 528.571 519.235 530.766 519.141C532.962 519.046 535.089 518.297 536.911 516.978C536.911 516.978 541.648 475.022 540.123 461.099Z" fill="black"/>
<path opacity="0.15" d="M533.348 383.662C533.348 383.662 529.299 390.834 517.017 396.078L513.588 408.393L513.224 430.038C512.752 423.069 512.036 415.448 511.118 407.379L512.468 394.688C512.468 394.688 526.073 390.283 533.348 383.662Z" fill="black"/>
<path d="M542.377 284.987C540.028 276.019 534.508 272.064 528.394 271.644C526.842 271.542 523.684 271.644 523.684 271.644C524.116 275.454 513.21 278.134 504.788 275.99C502.224 276.7 498.04 277.728 495.867 278.496C489.78 280.669 482.464 288.84 481.519 310.181C481.519 310.181 480.548 356.034 480.845 369.363C495.894 376.172 510.43 377.027 519.189 375.158C537.451 371.348 540.447 362.945 540.447 362.945C540.447 362.945 540.285 351.355 539.597 332.709C542.647 306.342 543.389 288.869 542.377 284.987Z" fill="#F0F0F0"/>
<path d="M471.181 360.989C472.79 362.066 474.12 363.558 475.052 365.33C475.983 367.102 476.485 369.096 476.512 371.13C476.769 375.303 476.769 379.823 478.591 383.604C478.888 384.227 480.481 385.633 481.101 385.43V380.098C482.114 378.722 484.881 376.158 485.596 374.579C486.784 371.942 485.393 368.783 486.109 365.886C486.568 364.77 486.877 363.589 487.027 362.38C487.127 360.882 486.905 359.379 486.378 357.987C485.852 356.596 485.035 355.353 483.99 354.354C481.29 352.021 478.915 349.124 476.499 346.516C473.368 343.14 469.022 338.171 465.89 334.781L486.905 313.151C489.329 310.671 491.354 307.778 492.898 304.588C496.339 297.49 500.996 285.045 495.8 278.511C488.309 278.511 484.057 279.742 476.405 289.318C469.805 297.576 448.736 324.668 446.023 329.261C443.31 333.854 441.758 336.997 446.954 342.097C451.188 345.975 455.613 349.607 460.208 352.977C463.758 355.716 467.632 358.28 471.181 360.989Z" fill="#B16668"/>
<path d="M465.904 334.854C464.018 336.81 461.842 338.415 459.466 339.605C462.282 339.189 464.978 338.11 467.361 336.447L465.904 334.854Z" fill="#9A4A4D"/>
<path d="M498.161 277.786C495.121 277.633 492.075 277.881 489.091 278.525C484.543 279.583 481.479 282.06 473.597 291.637C465.715 301.213 460.181 309.022 460.181 309.022C460.181 309.022 457.913 314.411 464.23 320.525C470.547 326.639 476.242 325.581 476.242 325.581L493.95 307.095C493.95 307.095 506.583 292.911 498.161 277.786Z" fill="#37474F"/>
</g>
<defs>
<filter id="filter0_d_226_584" x="0" y="0" width="644" height="670" filterUnits="userSpaceOnUse" color-interpolation-filters="sRGB">
<feFlood flood-opacity="0" result="BackgroundImageFix"/>
<feColorMatrix in="SourceAlpha" type="matrix" values="0 0 0 0 0 0 0 0 0 0 0 0 0 0 0 0 0 0 127 0" result="hardAlpha"/>
<feOffset dy="4"/>
<feGaussianBlur stdDeviation="2"/>
<feComposite in2="hardAlpha" operator="out"/>
<feColorMatrix type="matrix" values="0 0 0 0 0 0 0 0 0 0 0 0 0 0 0 0 0 0 0.25 0"/>
<feBlend mode="normal" in2="BackgroundImageFix" result="effect1_dropShadow_226_584"/>
<feBlend mode="normal" in="SourceGraphic" in2="effect1_dropShadow_226_584" result="shape"/>
</filter>
</defs>
</svg>
